<svg xmlns="http://www.w3.org/2000/svg" viewBox="0 0 1200 630" shape-rendering="crispEdges">
  <defs>
    <pattern id="dots" x="0" y="0" width="20" height="20" patternUnits="userSpaceOnUse">
      <rect width="20" height="20" fill="#0d0d12"/>
      <rect x="0" y="0" width="2" height="2" fill="#1d2b53"/>
    </pattern>
  </defs>
  <rect width="1200" height="630" fill="url(#dots)"/>

  <!-- Brush motif -->
  <g transform="translate(80 90)" shape-rendering="crispEdges">
    <g fill="#ff77a8">
      <rect x="110" y="20" width="20" height="20"/>
      <rect x="100" y="30" width="30" height="20"/>
      <rect x="90" y="40" width="30" height="20"/>
      <rect x="80" y="50" width="30" height="20"/>
      <rect x="70" y="60" width="30" height="20"/>
      <rect x="60" y="70" width="30" height="20"/>
      <rect x="50" y="80" width="30" height="20"/>
      <rect x="40" y="90" width="30" height="20"/>
      <rect x="30" y="100" width="30" height="20"/>
      <rect x="20" y="110" width="30" height="20"/>
    </g>
    <rect x="20" y="130" width="10" height="10" fill="#ff77a8"/>
    <rect x="120" y="30" width="10" height="10" fill="#ffec27"/>
  </g>

  <!-- Wordmark -->
  <text x="80" y="380" font-family="'VT323', monospace" font-size="160" fill="#fff1e8" letter-spacing="6">PINCEL</text>
  <text x="80" y="450" font-family="'Inter', system-ui, sans-serif" font-size="36" fill="#c2c3c7" font-weight="500">A pixel-art editor for the web.</text>
  <text x="80" y="500" font-family="'Inter', system-ui, sans-serif" font-size="28" fill="#83769c" font-weight="400">Aseprite-compatible · Open source · Free</text>

  <!-- Tag line in bottom-right -->
  <text x="1120" y="580" font-family="'JetBrains Mono', monospace" font-size="22" fill="#5f574f" text-anchor="end">amigo-labs · pincel.app</text>
</svg>
