<svg xmlns="http://www.w3.org/2000/svg" viewBox="0 0 16 16" shape-rendering="crispEdges">
  <rect width="16" height="16" fill="#0d0d12"/>
  <rect x="1" y="1" width="14" height="14" fill="#1a1a23"/>
  <g fill="#29adff">
    <rect x="12" y="1" width="2" height="1"/>
    <rect x="11" y="2" width="4" height="1"/>
    <rect x="10" y="3" width="4" height="1"/>
    <rect x="9" y="4" width="4" height="1"/>
    <rect x="8" y="5" width="4" height="1"/>
    <rect x="7" y="6" width="4" height="1"/>
    <rect x="6" y="7" width="4" height="1"/>
    <rect x="5" y="8" width="4" height="1"/>
  </g>
  <g fill="#1d2b53">
    <rect x="11" y="2" width="1" height="1"/>
    <rect x="10" y="3" width="1" height="1"/>
    <rect x="9" y="4" width="1" height="1"/>
    <rect x="8" y="5" width="1" height="1"/>
    <rect x="7" y="6" width="1" height="1"/>
    <rect x="6" y="7" width="1" height="1"/>
    <rect x="5" y="8" width="1" height="1"/>
  </g>
  <rect x="4" y="9" width="3" height="1" fill="#c2c3c7"/>
  <g fill="#ab5236">
    <rect x="3" y="10" width="4" height="1"/>
    <rect x="2" y="11" width="6" height="1"/>
    <rect x="2" y="12" width="6" height="1"/>
    <rect x="3" y="13" width="4" height="1"/>
  </g>
  <rect x="7" y="11" width="1" height="1" fill="#ffccaa"/>
  <rect x="4" y="12" width="1" height="1" fill="#ffec27"/>
</svg>
